# xmcd CD database file
#
# Track frame offsets:
#	150
#	15463
#	28035
#	43100
#	59803
#	74370
#	90225
#	104583
#	122213
#	139488
#	157128
#	172275
#
# Disc length: 2588 seconds
#
# Revision: 0
# Processed by: cddbd v1.5.1PL0 Copyright (c) Steve Scherf et al.
# Submitted via: CDex 1.51
#
DISCID=b50a1a0c
DTITLE=Mark Middler - Wild horses
DYEAR=1994
DGENRE=Country
TTITLE0=Wild Horses
TTITLE1=Strong Song
TTITLE2=Oklahoma Wind
TTITLE3=Lost Desperado
TTITLE4=Box of old Flames
TTITLE5=Blue on Blue
TTITLE6=Drivin' the Blues
TTITLE7=I left my heart in Texas
TTITLE8=Shut it all down
TTITLE9=Second hand news
TTITLE10=Up all night
TTITLE11=Prend mon Coeur (Catch my heart)
EXTD=YEAR: 1994
EXTT0=
EXTT1=
EXTT2=
EXTT3=
EXTT4=
EXTT5=
EXTT6=
EXTT7=
EXTT8=
EXTT9=
EXTT10=
EXTT11=
PLAYORDER=
